<svg width="328" height="292" viewBox="0 0 328 292" fill="none" xmlns="http://www.w3.org/2000/svg">
<path d="M137.555 15L4.06482 246.21C-7.48518 266.21 6.95482 291.21 30.0448 291.21H297.025C320.115 291.21 334.555 266.21 323.005 246.21L189.515 15C177.965 -5 149.105 -5 137.555 15Z" fill="#FFCC00"/>
<path d="M151.645 171.13L148.185 119.32C147.535 109.23 147.215 101.98 147.215 97.58C147.215 91.6 148.785 86.93 151.915 83.57C155.055 80.22 159.175 78.54 164.295 78.54C170.495 78.54 174.645 80.69 176.735 84.98C178.825 89.27 179.875 95.45 179.875 103.53C179.875 108.29 179.625 113.12 179.115 118.02L174.465 171.34C173.955 177.69 172.875 182.55 171.225 185.94C169.565 189.33 166.825 191.02 163.005 191.02C159.185 191.02 156.405 189.38 154.895 186.1C153.385 182.82 152.295 177.83 151.655 171.12L151.645 171.13ZM163.655 242.3C159.255 242.3 155.415 240.88 152.135 238.03C148.855 235.18 147.215 231.2 147.215 226.08C147.215 221.61 148.785 217.81 151.915 214.67C155.045 211.53 158.895 209.97 163.435 209.97C167.975 209.97 171.855 211.54 175.065 214.67C178.275 217.81 179.875 221.61 179.875 226.08C179.875 231.13 178.255 235.09 175.005 237.98C171.755 240.87 167.975 242.31 163.645 242.31L163.655 242.3Z" fill="#333333"/>
</svg>
