<svg width="16" height="16" viewBox="0 0 16 16" fill="none" xmlns="http://www.w3.org/2000/svg">
<path d="M13.2906 10.3549L10.8831 9.60135C9.96819 9.31287 9.34824 8.48276 9.34824 7.54079V7.38183C10.0705 7.08158 10.5761 6.38099 10.5761 5.56266V2.97225C10.5761 1.88309 9.67326 1 8.55976 1H7.44626C6.33276 1 5.42992 1.88309 5.42992 2.97225V5.56855C5.42992 6.38688 5.93551 7.08158 6.65778 7.38772V7.54668C6.65778 8.48865 6.03783 9.31876 5.12296 9.60723L2.71539 10.3608C1.69218 10.6787 1 11.6089 1 12.6569V15H15V12.6569C15 11.6089 14.3078 10.6846 13.2846 10.3608L13.2906 10.3549Z" fill="white" stroke="#949494" stroke-linecap="round" stroke-linejoin="round"/>
</svg>
