<svg width="266" height="238" viewBox="0 0 266 238" fill="none" xmlns="http://www.w3.org/2000/svg">
<path d="M262.42 197.649L155.962 13.2576C153.54 9.06377 150.058 5.62608 145.893 3.31762C141.977 1.14637 137.518 0 132.999 0C128.479 0 124.021 1.1478 120.104 3.31762C115.939 5.62608 112.457 9.06377 110.036 13.2576L3.57739 197.649C1.156 201.843 -0.0789891 206.576 0.00391555 211.338C0.082532 215.815 1.31753 220.251 3.57739 224.164C5.83726 228.078 9.06053 231.365 12.8984 233.672C16.9808 236.125 21.6978 237.422 26.5406 237.422H239.457C244.3 237.422 249.017 236.125 253.099 233.672C256.937 231.367 260.16 228.078 262.42 224.164C264.68 220.251 265.916 215.815 265.994 211.338C266.076 206.577 264.841 201.843 262.42 197.649ZM246.204 214.802C245.527 215.972 243.516 218.697 239.457 218.697H26.5406C22.4811 218.697 20.4699 215.972 19.7938 214.802C19.1177 213.631 17.7641 210.526 19.7938 207.011L126.252 22.6201C128.282 19.1038 131.647 18.725 132.999 18.725C134.351 18.725 137.716 19.1052 139.745 22.6201L246.204 207.01C248.233 210.526 246.88 213.63 246.204 214.8V214.802Z" fill="#CE3A3A"/>
<path d="M132.999 164.88C128.226 164.88 124.285 161.154 124.016 156.388L119.574 77.3072C119.141 69.597 125.276 63.1076 132.999 63.1076C140.722 63.1076 146.857 69.597 146.424 77.3072L141.981 156.388C141.714 161.152 137.771 164.88 132.999 164.88Z" fill="#CE3A3A"/>
<path d="M132.999 202.759C140.459 202.759 146.506 196.711 146.506 189.251C146.506 181.791 140.459 175.744 132.999 175.744C125.539 175.744 119.491 181.791 119.491 189.251C119.491 196.711 125.539 202.759 132.999 202.759Z" fill="#CE3A3A"/>
</svg>
