<svg width="300" height="300" viewBox="0 0 300 300" fill="none" xmlns="http://www.w3.org/2000/svg">
<circle cx="150" cy="150" r="150" fill="#A7E079"/>
<path d="M138.43 160.59L134.97 108.78C134.32 98.69 134 91.44 134 87.04C134 81.06 135.57 76.39 138.7 73.03C141.84 69.68 145.96 68 151.08 68C157.28 68 161.43 70.15 163.52 74.44C165.61 78.73 166.66 84.91 166.66 92.99C166.66 97.75 166.41 102.58 165.9 107.48L161.25 160.8C160.74 167.15 159.66 172.01 158.01 175.4C156.35 178.79 153.61 180.48 149.79 180.48C145.97 180.48 143.19 178.84 141.68 175.56C140.17 172.28 139.08 167.29 138.44 160.58L138.43 160.59ZM150.44 231.76C146.04 231.76 142.2 230.34 138.92 227.49C135.64 224.64 134 220.66 134 215.54C134 211.07 135.57 207.27 138.7 204.13C141.83 200.99 145.68 199.43 150.22 199.43C154.76 199.43 158.64 201 161.85 204.13C165.06 207.27 166.66 211.07 166.66 215.54C166.66 220.59 165.04 224.55 161.79 227.44C158.54 230.33 154.76 231.77 150.43 231.77L150.44 231.76Z" fill="#333333"/>
</svg>
