<?xml version="1.0" encoding="utf-8"?>
<!-- Generator: Adobe Illustrator 26.2.1, SVG Export Plug-In . SVG Version: 6.00 Build 0)  -->
<svg version="1.2" baseProfile="tiny" id="Layer_1" xmlns="http://www.w3.org/2000/svg" xmlns:xlink="http://www.w3.org/1999/xlink"
	 x="0px" y="0px" viewBox="0 0 1733.73 225.38" overflow="visible" xml:space="preserve">
<g>
	<path fill="#FFFFFF" d="M912.75,202.64v-55.13c0-27.92,22.71-50.63,50.63-50.63H1011c11.36,0,20.6-10.14,20.6-21.5
		c0-11.36-9.24-21.49-20.6-21.49h-99.44V20.57H1011c29.73,0,53.91,25.09,53.91,54.81c0,29.73-24.18,54.81-53.91,54.81h-48.07
		c-9.55,0-17.32,7.76-17.32,17.32v55.13H912.75z"/>
	<path fill="#FFFFFF" d="M1482.66,202.89c-63.58,0-68.52-62.2-68.52-81.26v-19.8c0-19.06,4.94-81.26,68.52-81.26h74.19v33.31h-72.58
		c-11.12,0-19.81,3.05-25.8,9.05c-11.35,11.36-11.31,30.89-11.28,46.59v4.41c-0.03,15.7-0.07,35.23,11.28,46.59
		c5.99,6,14.68,9.05,25.8,9.05h41.98c9.55,0,17.32-7.77,17.32-17.32v-27.73h-28.45v-29.2h60.41v56.93
		c0,27.92-22.71,50.64-50.64,50.64H1482.66z"/>
	<path fill="#FFFFFF" d="M1135.74,202.89c-26.95,0-47.26-21.77-47.26-50.64V20.57h33.31v120.07c0,15.13,1.55,31.26,20.12,31.26
		h78.68v31H1135.74z"/>
	<path fill="#FFFFFF" d="M1389.48,134.87c0,40.53-32.7,69.95-77.75,69.95c-45.05,0-77.75-29.42-77.75-69.95V20.57h33.31v115.39
		c0,22.52,17.02,36.51,44.43,36.51c27.41,0,44.43-13.99,44.43-36.51V20.57h33.31V134.87z"/>
	<path fill="#FFFFFF" d="M822.16,171.9h-100.9c-15.83,0-19.28-11.74-19.95-24.59V76.16c0.67-12.84,4.12-24.59,19.95-24.59h100.9v-31
		H715.23c-26.95,0-47.27,21.77-47.27,50.63v81.06c0,28.86,20.32,50.64,47.27,50.64h106.94V171.9z"/>
	<path fill="#FFFFFF" d="M387.93,202.89c-26.95,0-47.26-21.77-47.26-50.64V20.57h33.31v120.07c0,15.13,1.55,31.26,20.12,31.26h78.68
		v31H387.93z"/>
	<path fill="#FFFFFF" d="M300.48,113.28l-0.78-0.37v-2.37l0.78-0.37c7.82-3.63,15.92-17.98,15.92-35.7
		c0-29.73-24.19-53.9-53.91-53.9H158.2v182.07h29.89V52.98h74.85c11.17,0,20.6,10.52,20.6,22.17c0,11.69-9.63,22.18-20.6,22.18
		h-51.2v28.8h51.2c10.97,0,20.6,11.21,20.6,22.9c0,11.41-9.44,22.91-20.6,22.91h-51.2v30.95h50.75c29.73,0,53.91-24.19,53.91-53.91
		C316.4,131.26,308.3,116.91,300.48,113.28"/>
	<path fill="#FFFFFF" d="M641.68,134.87c0,40.53-32.7,69.95-77.75,69.95c-45.05,0-77.75-29.42-77.75-69.95V20.57h33.31v115.39
		c0,22.52,17.02,36.51,44.43,36.51s44.43-13.99,44.43-36.51V20.57h33.31V134.87z"/>
	<path fill="#FFFFFF" d="M737.75,127.04c-4.52,0-7.94-3.66-7.94-8.5v-13.61c0-4.85,3.42-8.5,7.94-8.5h79.92v30.61H737.75z"/>
</g>
</svg>
