<?xml version="1.0" encoding="utf-8"?>
<!-- Generator: Adobe Illustrator 27.4.0, SVG Export Plug-In . SVG Version: 6.00 Build 0)  -->
<svg version="1.0" id="Layer_1" xmlns="http://www.w3.org/2000/svg" xmlns:xlink="http://www.w3.org/1999/xlink" x="0px" y="0px"
	 viewBox="0 0 2416.65 194.9" enable-background="new 0 0 2416.65 194.9" xml:space="preserve">
<g>
	<path fill="#FFFFFF" d="M760.61,187.64v-55.13c0-27.92,22.71-50.63,50.63-50.63h47.62c11.36,0,20.6-10.14,20.6-21.5
		c0-11.36-9.24-21.49-20.6-21.49h-99.44V5.57h99.44c29.73,0,53.91,25.09,53.91,54.81c0,29.73-24.18,54.81-53.91,54.81h-48.07
		c-9.55,0-17.32,7.76-17.32,17.32v55.13H760.61z"/>
	<path fill="#FFFFFF" d="M1330.52,187.89c-63.58,0-68.52-62.2-68.52-81.26v-19.8c0-19.06,4.94-81.26,68.52-81.26h74.19v33.31h-72.58
		c-11.12,0-19.81,3.05-25.8,9.05c-11.35,11.36-11.31,30.89-11.28,46.59v4.41c-0.03,15.7-0.07,35.23,11.28,46.59
		c5.99,6,14.68,9.05,25.8,9.05h41.98c9.55,0,17.32-7.77,17.32-17.32v-27.73h-28.45v-29.2h60.41v56.93
		c0,27.92-22.71,50.64-50.64,50.64H1330.52z"/>
	<path fill="#FFFFFF" d="M983.6,187.89c-26.95,0-47.26-21.77-47.26-50.64V5.57h33.31v120.07c0,15.13,1.55,31.26,20.12,31.26h78.68
		v31H983.6z"/>
	<path fill="#FFFFFF" d="M1237.34,119.87c0,40.53-32.7,69.95-77.75,69.95c-45.05,0-77.75-29.42-77.75-69.95V5.57h33.31v115.39
		c0,22.52,17.02,36.51,44.43,36.51c27.41,0,44.43-13.99,44.43-36.51V5.57h33.31V119.87z"/>
	<path fill="#FFFFFF" d="M670.02,156.9h-100.9c-15.83,0-19.28-11.74-19.95-24.59V61.16c0.67-12.84,4.12-24.59,19.95-24.59h100.9v-31
		H563.09c-26.95,0-47.27,21.77-47.27,50.63v81.06c0,28.86,20.32,50.64,47.27,50.64h106.94V156.9z"/>
	<path fill="#FFFFFF" d="M235.79,187.89c-26.95,0-47.26-21.77-47.26-50.64V5.57h33.31v120.07c0,15.13,1.55,31.26,20.12,31.26h78.68
		v31H235.79z"/>
	<path fill="#FFFFFF" d="M148.34,98.28l-0.78-0.37v-2.37l0.78-0.37c7.82-3.63,15.92-17.98,15.92-35.7c0-29.73-24.19-53.9-53.91-53.9
		H6.06v182.07h29.89V37.98h74.85c11.17,0,20.6,10.52,20.6,22.17c0,11.69-9.63,22.18-20.6,22.18H59.6v28.8h51.2
		c10.97,0,20.6,11.21,20.6,22.9c0,11.41-9.43,22.91-20.6,22.91H59.6v30.95h50.75c29.73,0,53.91-24.19,53.91-53.91
		C164.26,116.26,156.16,101.91,148.34,98.28"/>
	<path fill="#FFFFFF" d="M489.53,119.87c0,40.53-32.7,69.95-77.75,69.95c-45.05,0-77.75-29.42-77.75-69.95V5.57h33.31v115.39
		c0,22.52,17.02,36.51,44.43,36.51s44.43-13.99,44.43-36.51V5.57h33.31V119.87z"/>
	<path fill="#FFFFFF" d="M585.6,112.04c-4.52,0-7.94-3.66-7.94-8.5V89.93c0-4.85,3.42-8.5,7.94-8.5h79.91v30.61H585.6z"/>
</g>
<g>
	<g>
		<path fill="#CDCDCD" d="M1554.68,66.7h56.94v12.7h-41.75v26.83h35.34v12.83h-35.34v31.15h43.19v12.83h-58.38V66.7z"/>
		<path fill="#CDCDCD" d="M1626.67,120.49h34.56v11.13h-34.56V120.49z"/>
		<path fill="#CDCDCD" d="M1679.94,66.7h17.41l17.67,48.69c2.23,6.41,4.19,12.96,6.41,19.5h0.65c2.23-6.54,4.06-13.09,6.28-19.5
			l17.41-48.69h17.54v96.33h-14.14v-47.64c0-8.64,1.18-21.07,1.96-29.84h-0.52l-7.72,22.25l-16.75,45.94h-9.42l-16.88-45.94
			l-7.59-22.25h-0.52c0.65,8.77,1.83,21.2,1.83,29.84v47.64h-13.61V66.7z"/>
		<path fill="#CDCDCD" d="M1783.08,143.92c0-15.44,13.09-23.43,43.06-26.7c-0.13-8.38-3.14-15.71-13.74-15.71
			c-7.59,0-14.66,3.4-20.81,7.33l-5.63-10.21c7.46-4.71,17.54-9.42,29.06-9.42c17.93,0,26.18,11.39,26.18,30.5v43.32h-12.3
			l-1.31-8.25h-0.39c-6.54,5.63-14.27,9.95-22.91,9.95C1791.85,164.73,1783.08,156.62,1783.08,143.92z M1826.15,144.45v-17.67
			c-21.33,2.62-28.53,7.98-28.53,16.1c0,7.07,4.84,9.95,11.26,9.95C1815.15,152.82,1820.26,149.81,1826.15,144.45z"/>
		<path fill="#CDCDCD" d="M1860.44,68.66c0-5.37,4.06-8.9,9.55-8.9c5.5,0,9.69,3.53,9.69,8.9c0,5.24-4.19,8.9-9.69,8.9
			C1864.5,77.56,1860.44,73.9,1860.44,68.66z M1862.54,91.04h14.92v71.99h-14.92V91.04z"/>
		<path fill="#CDCDCD" d="M1900.1,146.15V58.71h14.92v88.22c0,4.06,1.83,5.5,3.67,5.5c0.65,0,1.18,0,2.49-0.26l1.96,11.39
			c-1.83,0.65-4.45,1.18-8.12,1.18C1904.16,164.73,1900.1,157.8,1900.1,146.15z"/>
		<path fill="#CDCDCD" d="M1963.06,150.6l8.9-10.47c6.94,6.94,16.36,11.39,25.65,11.39c11.65,0,18.19-5.5,18.19-13.61
			c0-8.77-6.54-11.52-15.45-15.44l-13.35-5.76c-9.29-3.93-19.63-11.26-19.63-25.26c0-15.18,13.35-26.57,31.68-26.57
			c11.26,0,21.86,4.71,29.19,12.17l-7.98,9.69c-6.02-5.37-12.7-8.64-21.2-8.64c-9.82,0-16.23,4.71-16.23,12.43
			c0,8.25,7.72,11.39,15.58,14.53l13.22,5.63c11.39,4.84,19.63,11.91,19.63,26.05c0,15.44-12.83,28.01-33.9,28.01
			C1984.13,164.73,1971.83,159.5,1963.06,150.6z"/>
		<path fill="#CDCDCD" d="M2043.03,127.17c0-23.43,15.97-37.96,32.85-37.96c19.11,0,29.32,13.74,29.32,34.16
			c0,2.88-0.26,5.89-0.65,7.59h-46.73c1.18,13.74,9.82,21.99,22.25,21.99c6.41,0,11.91-1.96,17.15-5.37l5.24,9.56
			c-6.68,4.45-14.92,7.59-24.35,7.59C2058.6,164.73,2043.03,150.86,2043.03,127.17z M2092.24,120.62c0-12.43-5.63-19.63-16.1-19.63
			c-9.03,0-17.02,6.94-18.46,19.63H2092.24z"/>
		<path fill="#CDCDCD" d="M2122.08,91.04h12.3l1.18,12.96h0.39c5.1-9.29,12.7-14.79,20.42-14.79c3.53,0,5.89,0.52,8.12,1.57
			l-2.75,13.09c-2.49-0.79-4.32-1.18-7.2-1.18c-5.89,0-12.96,4.06-17.54,15.45v44.89h-14.92V91.04z"/>
		<path fill="#CDCDCD" d="M2168.81,91.04h15.45l12.3,38.74c1.96,7.07,4.19,14.4,6.28,21.47h0.52c2.09-7.07,4.32-14.4,6.28-21.47
			l12.3-38.74h14.66l-24.87,71.99h-17.41L2168.81,91.04z"/>
		<path fill="#CDCDCD" d="M2247.74,68.66c0-5.37,4.06-8.9,9.55-8.9c5.5,0,9.69,3.53,9.69,8.9c0,5.24-4.19,8.9-9.69,8.9
			C2251.8,77.56,2247.74,73.9,2247.74,68.66z M2249.83,91.04h14.92v71.99h-14.92V91.04z"/>
		<path fill="#CDCDCD" d="M2282.29,127.17c0-24.08,16.62-37.96,35.6-37.96c9.16,0,15.84,3.66,21.07,8.25l-7.46,9.82
			c-3.93-3.53-7.98-5.63-12.96-5.63c-12.04,0-20.68,10.21-20.68,25.52c0,15.18,8.25,25.26,20.29,25.26c6.02,0,11.39-2.88,15.71-6.54
			l6.15,9.95c-6.54,5.89-15.05,8.9-23.3,8.9C2297.21,164.73,2282.29,150.99,2282.29,127.17z"/>
		<path fill="#CDCDCD" d="M2346.56,127.17c0-23.43,15.97-37.96,32.85-37.96c19.11,0,29.32,13.74,29.32,34.16
			c0,2.88-0.26,5.89-0.65,7.59h-46.73c1.18,13.74,9.82,21.99,22.25,21.99c6.41,0,11.91-1.96,17.15-5.37l5.24,9.56
			c-6.68,4.45-14.92,7.59-24.35,7.59C2362.14,164.73,2346.56,150.86,2346.56,127.17z M2395.77,120.62c0-12.43-5.63-19.63-16.1-19.63
			c-9.03,0-17.02,6.94-18.46,19.63H2395.77z"/>
	</g>
</g>
</svg>
